<?xml version="1.0" encoding="UTF-8" standalone="no"?>
<!DOCTYPE svg PUBLIC "-//W3C//DTD SVG 1.1//EN" "http://www.w3.org/Graphics/SVG/1.1/DTD/svg11.dtd">
<svg xmlns="http://www.w3.org/2000/svg" xmlns:xl="http://www.w3.org/1999/xlink" version="1.1" xmlns:dc="http://purl.org/dc/elements/1.1/" viewBox="17 8 488 596" width="488" height="596">
  <defs>
    <marker orient="auto" overflow="visible" markerUnits="strokeWidth" id="FilledArrow_Marker" stroke-linejoin="miter" stroke-miterlimit="10" viewBox="-1 -3 7 6" markerWidth="7" markerHeight="6" color="#929292">
      <g>
        <path d="M 4.8 0 L 0 -1.8 L 0 1.8 Z" fill="currentColor" stroke="currentColor" stroke-width="1"/>
      </g>
    </marker>
  </defs>
  <g id="ICOtronic" stroke="none" fill="none" fill-opacity="1" stroke-opacity="1" stroke-dasharray="none">
    <title>ICOtronic</title>
    <g id="ICOtronic_Layer_1">
      <title>Layer 1</title>
      <g id="Group_26">
        <title>Sensor Hardware</title>
        <g id="Graphic_9">
          <title>Sensor Hardware</title>
          <path d="M 172 558 L 296 558 C 301.52284 558 306 562.47714 306 568 L 306 593 C 306 598.5228 301.52284 603 296 603 L 172 603 C 166.47715 603 162 598.5228 162 593 L 162 568 C 162 562.47714 166.47715 558 172 558 Z" fill="white"/>
          <path d="M 172 558 L 296 558 C 301.52284 558 306 562.47714 306 568 L 306 593 C 306 598.5228 301.52284 603 296 603 L 172 603 C 166.47715 603 162 598.5228 162 593 L 162 568 C 162 562.47714 166.47715 558 172 558 Z" stroke="#929292" stroke-linecap="round" stroke-linejoin="round" stroke-width="2"/>
          <text transform="translate(167 561.5)" fill="black">
            <tspan font-family="Lucida Grande" font-size="14" fill="black" x="29.767" y="14" xml:space="preserve"> </tspan>
            <tspan font-family="Avenir" font-size="14" fill="black" y="14" xml:space="preserve">ICOtronic </tspan>
            <tspan font-family="Lucida Grande" font-size="14" fill="black" x="30.061" y="33" xml:space="preserve"> </tspan>
            <tspan font-family="Avenir" font-size="14" fill="black" y="33" xml:space="preserve">Hardware</tspan>
          </text>
        </g>
        <g id="Graphic_36">
          <title>Microchip</title>
          <path d="M 191.49995 571.25 C 191.49995 570.0074 190.4926 569.00004 189.24996 569.00004 L 178.74998 569.00004 C 177.50734 569.00004 176.49999 570.0074 176.49999 571.25 L 176.49999 590.75 C 176.49999 591.9926 177.50734 593 178.74998 593 L 189.24996 593 C 190.4926 593 191.49995 591.9926 191.49995 590.75 Z M 195.99994 573.9688 C 195.99994 573.81355 195.87392 573.6875 195.7187 573.6875 L 194.87494 573.6875 L 194.87494 573.4063 C 194.87494 573.25105 194.74892 573.125 194.5937 573.125 L 192.62495 573.125 L 192.62495 575.375 L 194.5937 575.375 C 194.74892 575.375 194.87494 575.249 194.87494 575.0938 L 194.87494 574.8125 L 195.7187 574.8125 C 195.87392 574.8125 195.99994 574.6865 195.99994 574.5313 Z M 195.99994 578.4688 C 195.99994 578.31354 195.87392 578.1875 195.7187 578.1875 L 194.87494 578.1875 L 194.87494 577.9063 C 194.87494 577.75104 194.74892 577.625 194.5937 577.625 L 192.62495 577.625 L 192.62495 579.875 L 194.5937 579.875 C 194.74892 579.875 194.87494 579.749 194.87494 579.59376 L 194.87494 579.3125 L 195.7187 579.3125 C 195.87392 579.3125 195.99994 579.1865 195.99994 579.03126 Z M 195.99994 582.96876 C 195.99994 582.8135 195.87392 582.6875 195.7187 582.6875 L 194.87494 582.6875 L 194.87494 582.40626 C 194.87494 582.251 194.74892 582.125 194.5937 582.125 L 192.62495 582.125 L 192.62495 584.375 L 194.5937 584.375 C 194.74892 584.375 194.87494 584.249 194.87494 584.09375 L 194.87494 583.8125 L 195.7187 583.8125 C 195.87392 583.8125 195.99994 583.6865 195.99994 583.53125 Z M 195.99994 587.46874 C 195.99994 587.3135 195.87392 587.1875 195.7187 587.1875 L 194.87494 587.1875 L 194.87494 586.90625 C 194.87494 586.751 194.74892 586.625 194.5937 586.625 L 192.62495 586.625 L 192.62495 588.875 L 194.5937 588.875 C 194.74892 588.875 194.87494 588.749 194.87494 588.59374 L 194.87494 588.3125 L 195.7187 588.3125 C 195.87392 588.3125 195.99994 588.1865 195.99994 588.03124 Z M 173.40624 586.625 C 173.25102 586.625 173.125 586.751 173.125 586.90625 L 173.125 587.1875 L 172.28125 587.1875 C 172.12602 587.1875 172 587.3135 172 587.46874 L 172 588.03124 C 172 588.1865 172.12602 588.3125 172.28125 588.3125 L 173.125 588.3125 L 173.125 588.59374 C 173.125 588.749 173.25102 588.875 173.40624 588.875 L 175.37499 588.875 L 175.37499 586.625 Z M 173.40624 582.125 C 173.25102 582.125 173.125 582.251 173.125 582.40626 L 173.125 582.6875 L 172.28125 582.6875 C 172.12602 582.6875 172 582.8135 172 582.96876 L 172 583.53125 C 172 583.6865 172.12602 583.8125 172.28125 583.8125 L 173.125 583.8125 L 173.125 584.09375 C 173.125 584.249 173.25102 584.375 173.40624 584.375 L 175.37499 584.375 L 175.37499 582.125 Z M 173.40624 577.625 C 173.25102 577.625 173.125 577.75104 173.125 577.9063 L 173.125 578.1875 L 172.28125 578.1875 C 172.12602 578.1875 172 578.31354 172 578.4688 L 172 579.03126 C 172 579.1865 172.12602 579.3125 172.28125 579.3125 L 173.125 579.3125 L 173.125 579.59376 C 173.125 579.749 173.25102 579.875 173.40624 579.875 L 175.37499 579.875 L 175.37499 577.625 Z M 173.40624 573.125 C 173.25102 573.125 173.125 573.25105 173.125 573.4063 L 173.125 573.6875 L 172.28125 573.6875 C 172.12602 573.6875 172 573.81355 172 573.9688 L 172 574.5313 C 172 574.6865 172.12602 574.8125 172.28125 574.8125 L 173.125 574.8125 L 173.125 575.0938 C 173.125 575.249 173.25102 575.375 173.40624 575.375 L 175.37499 575.375 L 175.37499 573.125 Z" fill="#6d34c8"/>
        </g>
      </g>
      <g id="Line_5">
        <line x1="234" y1="505" x2="234" y2="544.1" marker-end="url(#FilledArrow_Marker)" stroke="#929292" stroke-linecap="round" stroke-linejoin="round" stroke-width="2"/>
      </g>
      <g id="Graphic_6">
        <title>uses</title>
        <rect x="215.252" y="509.78545" width="37.496" height="29" fill="white"/>
        <text transform="translate(220.252 514.78545)" fill="black">
          <tspan font-family="Avenir" font-size="14" fill="black" x="0" y="14" xml:space="preserve">uses</tspan>
        </text>
      </g>
      <g id="Graphic_3">
        <title>ICOc</title>
        <path d="M 28 252 L 152 252 C 157.52284 252 162 256.47715 162 262 L 162 287 C 162 292.52284 157.52284 297 152 297 L 28 297 C 22.477152 297 18 292.52284 18 287 L 18 262 C 18 256.47715 22.477152 252 28 252 Z" fill="white"/>
        <path d="M 28 252 L 152 252 C 157.52284 252 162 256.47715 162 262 L 162 287 C 162 292.52284 157.52284 297 152 297 L 28 297 C 22.477152 297 18 292.52284 18 287 L 18 262 C 18 256.47715 22.477152 252 28 252 Z" stroke="#929292" stroke-linecap="round" stroke-linejoin="round" stroke-width="2"/>
        <text transform="translate(23 265)" fill="black">
          <tspan font-family="Lucida Grande" font-size="14" fill="black" x="12.605625" y="14" xml:space="preserve">     </tspan>
          <tspan font-family="Avenir" font-size="14" fill="black" y="14" xml:space="preserve">ICOc (script)</tspan>
        </text>
      </g>
      <g id="Group_23">
        <title>ICOtest</title>
        <g id="Graphic_4">
          <title>ICOtest</title>
          <path d="M 370 252 L 494 252 C 499.52284 252 504 256.47715 504 262 L 504 287 C 504 292.52284 499.52284 297 494 297 L 370 297 C 364.47714 297 360 292.52284 360 287 L 360 262 C 360 256.47715 364.47714 252 370 252 Z" fill="white"/>
          <path d="M 370 252 L 494 252 C 499.52284 252 504 256.47715 504 262 L 504 287 C 504 292.52284 499.52284 297 494 297 L 370 297 C 364.47714 297 360 292.52284 360 287 L 360 262 C 360 256.47715 364.47714 252 370 252 Z" stroke="#929292" stroke-linecap="round" stroke-linejoin="round" stroke-width="2"/>
          <text transform="translate(365 265)" fill="black">
            <tspan font-family="Lucida Grande" font-size="14" fill="black" x="37.579" y="14" xml:space="preserve">  </tspan>
            <tspan font-family="Avenir" font-size="14" fill="black" y="14" xml:space="preserve">Tests</tspan>
          </text>
        </g>
        <g id="Graphic_33">
          <title>Stethoscope</title>
          <path d="M 394.29107 268.58336 C 392.688 268.6068 391.37077 269.91463 391.33795 271.5177 C 391.3145 272.6568 391.9239 273.65524 392.83795 274.18024 L 392.83795 279.45834 C 392.83795 282.14426 390.48487 284.33333 387.58796 284.33333 C 384.77547 284.33333 382.46926 282.26616 382.3427 279.68333 C 385.75517 278.9802 388.3333 275.9521 388.3333 272.33336 L 388.3333 265.04898 C 388.3333 264.51463 387.9536 264.05055 387.4286 263.94742 L 384.48016 263.3568 C 383.8708 263.23496 383.2802 263.62868 383.1583 264.23805 L 383.0083 264.974 C 382.8864 265.58337 383.2802 266.17398 383.88956 266.29588 L 385.32863 266.5818 L 385.32863 272.27243 C 385.32863 274.75208 383.3505 276.80524 380.8708 276.82868 C 378.3677 276.8521 376.32865 274.8271 376.32865 272.3287 L 376.32865 266.5865 L 377.76767 266.30055 C 378.37705 266.1787 378.7708 265.58804 378.64896 264.97867 L 378.5036 264.24277 C 378.38176 263.6334 377.7911 263.23963 377.18174 263.36148 L 374.238 263.94275 C 373.713 264.05055 373.33333 264.50992 373.33333 265.04898 L 373.33333 272.33336 C 373.33333 275.95678 375.9161 278.9896 379.338 279.68333 C 379.4599 283.92084 383.1114 287.33332 387.5833 287.33332 C 392.13016 287.33332 395.83327 283.79894 395.83327 279.45834 L 395.83327 274.18024 C 396.72856 273.6599 397.33327 272.6943 397.33327 271.58336 C 397.33327 269.9099 395.9645 268.55993 394.29107 268.58336 Z M 394.33328 272.33336 C 393.9208 272.33336 393.5833 271.99585 393.5833 271.58336 C 393.5833 271.17087 393.9208 270.83336 394.33328 270.83336 C 394.74577 270.83336 395.08327 271.17087 395.08327 271.58336 C 395.08327 271.99585 394.74577 272.33336 394.33328 272.33336 Z" fill="#fded05"/>
        </g>
      </g>
      <g id="Line_14">
        <line x1="90" y1="252" x2="152.29176" y2="197.4947" marker-end="url(#FilledArrow_Marker)" stroke="#929292" stroke-linecap="round" stroke-linejoin="round" stroke-width="2"/>
      </g>
      <g id="Graphic_27">
        <title>produces</title>
        <rect x="82.80282" y="214.0099" width="68.086" height="29" fill="white"/>
        <text transform="translate(87.80282 219.0099)" fill="black">
          <tspan font-family="Avenir" font-size="14" fill="black" x="0" y="14" xml:space="preserve">produces</tspan>
        </text>
      </g>
      <g id="Graphic_12">
        <title>Logs</title>
        <path d="M 198 138.3048 C 198 131.48424 197.0856 130.6404 190.40616 123.8904 L 190.3356 123.82056 C 183.62088 117 183.55104 117 176.65992 117 C 167.48424 117 126 117 126 117 L 126 189 L 198 189 L 198 138.3048 Z" fill="white"/>
        <path d="M 198 138.3048 C 198 131.48424 197.0856 130.6404 190.40616 123.8904 L 190.3356 123.82056 C 183.62088 117 183.55104 117 176.65992 117 C 167.48424 117 126 117 126 117 L 126 189 L 198 189 L 198 138.3048 Z M 198 137.95344 C 198 131.48424 197.92944 131.48424 183.55104 131.48424 L 183.55104 131.48424 C 183.55104 117.07056 183.55104 117 177.08184 117" stroke="#929292" stroke-linecap="round" stroke-linejoin="round" stroke-width="2"/>
        <text transform="translate(131 143.5)" fill="black">
          <tspan font-family="Avenir" font-size="14" fill="black" x="12.975" y="14" xml:space="preserve">HDF5</tspan>
        </text>
      </g>
      <g id="Line_17">
        <line x1="162" y1="54" x2="162" y2="104.1" marker-end="url(#FilledArrow_Marker)" stroke="#929292" stroke-linecap="round" stroke-linejoin="round" stroke-width="2"/>
      </g>
      <g id="Graphic_18">
        <title>process</title>
        <rect x="133.144" y="63.26476" width="57.712" height="29" fill="white"/>
        <text transform="translate(138.144 68.26476)" fill="black">
          <tspan font-family="Avenir" font-size="14" fill="black" x="0" y="14" xml:space="preserve">process</tspan>
        </text>
      </g>
      <g id="Group_31">
        <title>ICOTools</title>
        <g id="Graphic_15">
          <title>Tools</title>
          <path d="M 100 9 L 224 9 C 229.52284 9 234 13.477152 234 19 L 234 44 C 234 49.522846 229.52284 54 224 54 L 100 54 C 94.47715 54 90 49.522846 90 44 L 90 19 C 90 13.477152 94.47715 9 100 9 Z" fill="white"/>
          <path d="M 100 9 L 224 9 C 229.52284 9 234 13.477152 234 19 L 234 44 C 234 49.522846 229.52284 54 224 54 L 100 54 C 94.47715 54 90 49.522846 90 44 L 90 19 C 90 13.477152 94.47715 9 100 9 Z" stroke="#929292" stroke-linecap="round" stroke-linejoin="round" stroke-width="2"/>
          <text transform="translate(95 22)" fill="black">
            <tspan font-family="Lucida Grande" font-size="14" fill="black" x="33.134" y="14" xml:space="preserve"> </tspan>
            <tspan font-family="Avenir" font-size="14" fill="black" y="14" xml:space="preserve">ICOlyzer</tspan>
          </text>
        </g>
        <g id="Graphic_34">
          <title>Graph</title>
          <path d="M 119.59995 36.000014 L 121.39997 36.000014 C 121.69994 36.000014 121.99995 35.699997 121.99995 35.400025 L 121.99995 29.10002 C 121.99995 28.80005 121.69994 28.500032 121.39997 28.500032 L 119.59995 28.500032 C 119.29998 28.500032 118.99996 28.80005 118.99996 29.10002 L 118.99996 35.400025 C 118.99996 35.699997 119.29998 36.000014 119.59995 36.000014 Z M 124.09994 36.000014 L 125.89995 36.000014 C 126.19993 36.000014 126.49994 35.699997 126.49994 35.400025 L 126.49994 24.600032 C 126.49994 24.30006 126.19993 24.000043 125.89995 24.000043 L 124.09994 24.000043 C 123.79997 24.000043 123.49995 24.30006 123.49995 24.600032 L 123.49995 35.400025 C 123.49995 35.699997 123.79997 36.000014 124.09994 36.000014 Z M 110.59997 36.000014 L 112.39999 36.000014 C 112.69996 36.000014 112.99998 35.699997 112.99998 35.400025 L 112.99998 32.100014 C 112.99998 31.800042 112.69996 31.500025 112.39999 31.500025 L 110.59997 31.500025 C 110.3 31.500025 109.99998 31.800042 109.99998 32.100014 L 109.99998 35.400025 C 109.99998 35.699997 110.3 36.000014 110.59997 36.000014 Z M 115.09996 36.000014 L 116.89998 36.000014 C 117.19995 36.000014 117.49997 35.699997 117.49997 35.400025 L 117.49997 26.10003 C 117.49997 25.800057 117.19995 25.50004 116.89998 25.50004 L 115.09996 25.50004 C 114.79999 25.50004 114.49997 25.800057 114.49997 26.10003 L 114.49997 35.400025 C 114.49997 35.699997 114.79999 36.000014 115.09996 36.000014 Z M 127.24994 39.000007 L 106.99999 39.000007 L 106.99999 24.75004 C 106.99999 24.335674 106.66436 24.000043 106.24999 24.000043 L 104.75 24.000043 C 104.33563 24.000043 104 24.335674 104 24.75004 L 104 40.500003 C 104 41.32828 104.67172 42 105.5 42 L 127.24994 42 C 127.66431 42 127.99994 41.66437 127.99994 41.25 L 127.99994 39.750005 C 127.99994 39.33564 127.66431 39.000007 127.24994 39.000007 Z" fill="#ff9300"/>
        </g>
      </g>
      <g id="Group_42">
        <title>ICOc</title>
        <g id="Graphic_44">
          <title>ICOc</title>
          <path d="M 172 459 L 296 459 C 301.52284 459 306 463.47714 306 469 L 306 494 C 306 499.52284 301.52284 504 296 504 L 172 504 C 166.47715 504 162 499.52284 162 494 L 162 469 C 162 463.47714 166.47715 459 172 459 Z" fill="white"/>
          <path d="M 172 459 L 296 459 C 301.52284 459 306 463.47714 306 469 L 306 494 C 306 499.52284 301.52284 504 296 504 L 172 504 C 166.47715 504 162 499.52284 162 494 L 162 469 C 162 463.47714 166.47715 459 172 459 Z" stroke="#929292" stroke-linecap="round" stroke-linejoin="round" stroke-width="2"/>
          <text transform="translate(167 472)" fill="black">
            <tspan font-family="Lucida Grande" font-size="14" fill="black" x="3.6300938" y="14" xml:space="preserve">        </tspan>
            <tspan font-family="Avenir" font-size="14" fill="black" y="14" xml:space="preserve">ICOc (library)</tspan>
          </text>
        </g>
        <g id="Graphic_43">
          <title>Monitor</title>
          <path d="M 204.74994 471.00004 L 182.25 471.00004 C 181.0078 471.00004 180 472.00785 180 473.25003 L 180 488.25 C 180 489.4922 181.0078 490.5 182.25 490.5 L 191.24997 490.5 L 190.49997 492.75 L 187.12498 492.75 C 186.50155 492.75 185.99998 493.25156 185.99998 493.875 C 185.99998 494.4984 186.50155 495 187.12498 495 L 199.87495 495 C 200.49838 495 200.99995 494.4984 200.99995 493.875 C 200.99995 493.25156 200.49838 492.75 199.87495 492.75 L 196.49996 492.75 L 195.74996 490.5 L 204.74994 490.5 C 205.99212 490.5 206.99993 489.4922 206.99993 488.25 L 206.99993 473.25003 C 206.99993 472.00785 205.99212 471.00004 204.74994 471.00004 Z M 203.99994 487.5 L 183 487.5 L 183 474.00003 L 203.99994 474.00003 Z" fill="#3da8aa"/>
        </g>
      </g>
      <g id="Line_46">
        <line x1="270" y1="459" x2="314.8783" y2="414.12167" marker-end="url(#FilledArrow_Marker)" stroke="#929292" stroke-linecap="round" stroke-linejoin="round" stroke-width="2"/>
      </g>
      <g id="Graphic_45">
        <title>produces</title>
        <rect x="258.30336" y="424.3656" width="63.662" height="29" fill="white"/>
        <text transform="translate(263.30336 429.3656)" fill="black">
          <tspan font-family="Avenir" font-size="14" fill="black" x="1314504e-19" y="14" xml:space="preserve">provides</tspan>
        </text>
      </g>
      <g id="Line_48">
        <line x1="197" y1="458" x2="154.12167" y2="415.12167" marker-end="url(#FilledArrow_Marker)" stroke="#929292" stroke-linecap="round" stroke-linejoin="round" stroke-width="2"/>
      </g>
      <g id="Graphic_47">
        <title>produces</title>
        <rect x="145.78034" y="424.11134" width="63.662" height="29" fill="white"/>
        <text transform="translate(150.78034 429.11134)" fill="black">
          <tspan font-family="Avenir" font-size="14" fill="black" x="1314504e-19" y="14" xml:space="preserve">provides</tspan>
        </text>
      </g>
      <g id="Graphic_50">
        <path d="M 32.333333 265.6483 L 32.333333 268.0105 C 32.333333 268.88156 33.037073 269.5853 33.908136 269.5853 L 34.695537 269.5853 L 37.05774 269.5853 L 37.05774 265.6483 C 37.05774 264.34415 35.99967 263.28608 34.695537 263.28608 C 33.391404 263.28608 32.333333 264.34415 32.333333 265.6483 Z M 37.845144 263.28608 C 38.33727 263.94553 38.632545 264.76246 38.632545 265.6483 L 38.632545 280.60892 C 38.632545 282.34612 40.044947 283.75852 41.78215 283.75852 C 43.519356 283.75852 44.93176 282.34612 44.93176 280.60892 L 44.93176 280.3481 C 44.93176 278.7536 46.22605 277.4593 47.82054 277.4593 L 55.95538 277.4593 L 55.95538 268.0105 C 55.95538 265.40223 53.83924 263.28608 51.23097 263.28608 Z M 55.16798 285.33333 C 58.21424 285.33333 60.67979 282.86778 60.67979 279.8215 C 60.67979 279.38845 60.32546 279.0341 59.89239 279.0341 L 47.82054 279.0341 C 47.09711 279.0341 46.50656 279.61974 46.50656 280.3481 L 46.50656 280.60892 C 46.50656 283.2172 44.39042 285.33333 41.78215 285.33333 L 50.44357 285.33333 Z" fill="#37d100"/>
      </g>
      <g id="Graphic_59">
        <title>ICOc</title>
        <path d="M 199 252 L 323 252 C 328.52284 252 333 256.47715 333 262 L 333 287 C 333 292.52284 328.52284 297 323 297 L 199 297 C 193.47715 297 189 292.52284 189 287 L 189 262 C 189 256.47715 193.47715 252 199 252 Z" fill="white"/>
        <path d="M 199 252 L 323 252 C 328.52284 252 333 256.47715 333 262 L 333 287 C 333 292.52284 328.52284 297 323 297 L 199 297 C 193.47715 297 189 292.52284 189 287 L 189 262 C 189 256.47715 193.47715 252 199 252 Z" stroke="#929292" stroke-linecap="round" stroke-linejoin="round" stroke-width="2"/>
        <text transform="translate(194 265)" fill="black">
          <tspan font-family="Lucida Grande" font-size="14" fill="black" x="34.634625" y="14" xml:space="preserve">     </tspan>
          <tspan font-family="Avenir" font-size="14" fill="black" y="14" xml:space="preserve">ICOn</tspan>
        </text>
      </g>
      <g id="Line_58">
        <line x1="261" y1="252" x2="172.88323" y2="195.9257" marker-end="url(#FilledArrow_Marker)" stroke="#929292" stroke-linecap="round" stroke-linejoin="round" stroke-width="2"/>
      </g>
      <g id="Graphic_57">
        <title>produces</title>
        <rect x="190.04399" y="214.0099" width="68.086" height="29" fill="white"/>
        <text transform="translate(195.04399 219.0099)" fill="black">
          <tspan font-family="Avenir" font-size="14" fill="black" x="0" y="14" xml:space="preserve">produces</tspan>
        </text>
      </g>
      <g id="Graphic_56">
        <path d="M 203.33333 265.6483 L 203.33333 268.0105 C 203.33333 268.88156 204.03707 269.5853 204.90813 269.5853 L 205.69553 269.5853 L 208.05774 269.5853 L 208.05774 265.6483 C 208.05774 264.34415 206.99967 263.28608 205.69553 263.28608 C 204.3914 263.28608 203.33333 264.34415 203.33333 265.6483 Z M 208.84514 263.28608 C 209.33727 263.94553 209.63254 264.76246 209.63254 265.6483 L 209.63254 280.60892 C 209.63254 282.34612 211.04494 283.75852 212.78215 283.75852 C 214.51935 283.75852 215.93175 282.34612 215.93175 280.60892 L 215.93175 280.3481 C 215.93175 278.7536 217.22605 277.4593 218.82053 277.4593 L 226.95538 277.4593 L 226.95538 268.0105 C 226.95538 265.40223 224.83923 263.28608 222.23097 263.28608 Z M 226.16797 285.33333 C 229.21423 285.33333 231.67979 282.86778 231.67979 279.8215 C 231.67979 279.38845 231.32546 279.0341 230.89238 279.0341 L 218.82053 279.0341 C 218.0971 279.0341 217.50656 279.61974 217.50656 280.3481 L 217.50656 280.60892 C 217.50656 283.2172 215.39042 285.33333 212.78215 285.33333 L 221.44357 285.33333 Z" fill="#37d100"/>
      </g>
      <g id="Group_66">
        <g id="Graphic_60">
          <title>ICOc</title>
          <path d="M 82 360 L 206 360 C 211.52284 360 216 364.47714 216 370 L 216 395 C 216 400.52284 211.52284 405 206 405 L 82 405 C 76.47715 405 72 400.52284 72 395 L 72 370 C 72 364.47714 76.47715 360 82 360 Z" fill="white"/>
          <path d="M 82 360 L 206 360 C 211.52284 360 216 364.47714 216 370 L 216 395 C 216 400.52284 211.52284 405 206 405 L 82 405 C 76.47715 405 72 400.52284 72 395 L 72 370 C 72 364.47714 76.47715 360 82 360 Z" stroke="#929292" stroke-linecap="round" stroke-linejoin="round" stroke-width="2"/>
          <text transform="translate(77 373)" fill="black">
            <tspan font-family="Lucida Grande" font-size="14" fill="black" x="4.1664688" y="14" xml:space="preserve">    </tspan>
            <tspan font-family="Avenir" font-size="14" fill="black" y="14" xml:space="preserve">Old API (PCAN)</tspan>
          </text>
        </g>
        <g id="Graphic_61">
          <path d="M 94.16368 395.42513 C 93.39719 396.1916 92.15241 396.1916 91.38592 395.42513 L 81.57486 385.61407 C 80.80838 384.8476 80.80838 383.6028 81.57486 382.8363 C 82.34135 382.06983 83.58613 382.06983 84.35262 382.8363 L 92.77786 391.26156 L 101.20311 382.84245 C 101.9696 382.07596 103.21437 382.07596 103.98086 382.84245 C 104.74735 383.60894 104.74735 384.8537 103.98086 385.6202 L 94.16981 395.43126 Z M 103.97473 373.8408 L 94.16368 383.65186 C 93.39719 384.41835 92.15241 384.41835 91.38592 383.65186 L 81.57486 373.8408 C 80.80838 373.0743 80.80838 371.82954 81.57486 371.06305 C 82.34135 370.29656 83.58613 370.29656 84.35262 371.06305 L 92.77786 379.4883 L 101.20311 371.0692 C 101.9696 370.3027 103.21437 370.3027 103.98086 371.0692 C 104.74735 371.83567 104.74735 373.08045 103.98086 373.84694 Z" fill="#0096ff"/>
        </g>
      </g>
      <g id="Group_67">
        <g id="Graphic_64">
          <title>ICOc</title>
          <path d="M 262 360 L 386 360 C 391.52284 360 396 364.47714 396 370 L 396 395 C 396 400.52284 391.52284 405 386 405 L 262 405 C 256.47715 405 252 400.52284 252 395 L 252 370 C 252 364.47714 256.47715 360 262 360 Z" fill="white"/>
          <path d="M 262 360 L 386 360 C 391.52284 360 396 364.47714 396 370 L 396 395 C 396 400.52284 391.52284 405 386 405 L 262 405 C 256.47715 405 252 400.52284 252 395 L 252 370 C 252 364.47714 256.47715 360 262 360 Z" stroke="#929292" stroke-linecap="round" stroke-linejoin="round" stroke-width="2"/>
          <text transform="translate(257 373)" fill="black">
            <tspan font-family="Lucida Grande" font-size="14" fill="black" x="1.9614687" y="14" xml:space="preserve">    </tspan>
            <tspan font-family="Avenir" font-size="14" fill="black" y="14" xml:space="preserve">API (python-can)</tspan>
          </text>
        </g>
        <g id="Graphic_63">
          <title>Bézier</title>
          <path d="M 272.16367 395.42513 C 271.39718 396.1916 270.1524 396.1916 269.38592 395.42513 L 259.57486 385.61407 C 258.80837 384.8476 258.80837 383.6028 259.57486 382.8363 C 260.34135 382.06983 261.58613 382.06983 262.35262 382.8363 L 270.77786 391.26156 L 279.2031 382.84245 C 279.9696 382.07596 281.21437 382.07596 281.98086 382.84245 C 282.74735 383.60894 282.74735 384.8537 281.98086 385.6202 L 272.1698 395.43126 Z M 281.97473 373.8408 L 272.16367 383.65186 C 271.39718 384.41835 270.1524 384.41835 269.38592 383.65186 L 259.57486 373.8408 C 258.80837 373.0743 258.80837 371.82954 259.57486 371.06305 C 260.34135 370.29656 261.58613 370.29656 262.35262 371.06305 L 270.77786 379.4883 L 279.2031 371.0692 C 279.9696 370.3027 281.21437 370.3027 281.98086 371.0692 C 282.74735 371.83567 282.74735 373.08045 281.98086 373.84694 Z" fill="#0096ff"/>
        </g>
      </g>
      <g id="Line_68">
        <line x1="90.85714" y1="298" x2="135.60479" y2="350.2056" marker-end="url(#FilledArrow_Marker)" stroke="#929292" stroke-linecap="round" stroke-linejoin="round" stroke-width="2"/>
      </g>
      <g id="Graphic_69">
        <title>produces</title>
        <rect x="91.92392" y="306.61723" width="37.496" height="29" fill="white"/>
        <text transform="translate(96.92392 311.61723)" fill="black">
          <tspan font-family="Avenir" font-size="14" fill="black" x="0" y="14" xml:space="preserve">uses</tspan>
        </text>
      </g>
      <g id="Line_71">
        <line x1="261" y1="297" x2="282.48986" y2="347.14302" marker-end="url(#FilledArrow_Marker)" stroke="#929292" stroke-linecap="round" stroke-linejoin="round" stroke-width="2"/>
      </g>
      <g id="Graphic_70">
        <title>produces</title>
        <rect x="252.15938" y="305.61723" width="37.496" height="29" fill="white"/>
        <text transform="translate(257.15938 310.61723)" fill="black">
          <tspan font-family="Avenir" font-size="14" fill="black" x="0" y="14" xml:space="preserve">uses</tspan>
        </text>
      </g>
      <g id="Line_73">
        <line x1="394.85713" y1="298" x2="333.70823" y2="351.5053" marker-end="url(#FilledArrow_Marker)" stroke="#929292" stroke-linecap="round" stroke-linejoin="round" stroke-width="2"/>
      </g>
      <g id="Graphic_72">
        <title>produces</title>
        <rect x="352.67143" y="306.61723" width="31.532" height="29" fill="white"/>
        <text transform="translate(357.67143 311.61723)" fill="black">
          <tspan font-family="Avenir" font-size="14" fill="black" x="0" y="14" xml:space="preserve">use</tspan>
        </text>
      </g>
    </g>
  </g>
</svg>
